# xmcd CD database file
#
# Track frame offsets:
#	150
#	17950
#	31457
#	59752
#	71187
#	100075
#	114385
#	135027
#	148900
#	175665
#	190870
#	207917
#	222175
#	246965
#	257752
#
# Disc length: 3804 seconds
#
# Revision: 1
# Processed by: cddbd v1.5.2PL0 Copyright (c) Steve Scherf et al.
# Submitted via: CDex 1.70beta2
#
DISCID=e10eda0f
DTITLE=オムニバス、クロード・ウィリアムソン 、サラ・ボーン 、カーメン・レジオ、その他 - JAZZ PARTY NIGHT IN ROPPONGI
DYEAR=1900
DGENRE=Jazz
TTITLE0=クレオパトラの夢（クロード・ウィリアムソン） 
TTITLE1=ミスティ（サラ・ボーン） 
TTITLE2=いつか王子様が（カーメン・レジオ）
TTITLE3=オール・オブ・ミー（フランキー・レイン）
TTITLE4=ラブ・フォー・セール（レイ・ターナー）
TTITLE5=いそしぎ（リタ・ライス）
TTITLE6=ボディ＆ソウル（スコット・ハミルトン）
TTITLE7=マイ・ファニー・バレンタイン（トニー・ベネット）
TTITLE8=サテン・ドール（サティク・ハキム）
TTITLE9=帰ってくれたらうれしいわ（ダイナ・ワシントン）
TTITLE10=ソフィスティケイテッド・レディー（ディック・メロドニアン）
TTITLE11=アズ・タイム・ゴーズ・バイ（トニー・マーチン）
TTITLE12=枯葉（デレク・スミス）
TTITLE13=バードランドの子守唄（クリス・コナー）
TTITLE14=A列車で行こう（アーネット・コブ）
EXTD=
EXTT0=
EXTT1=
EXTT2=
EXTT3=
EXTT4=
EXTT5=
EXTT6=
EXTT7=
EXTT8=
EXTT9=
EXTT10=
EXTT11=
EXTT12=
EXTT13=
EXTT14=
PLAYORDER=
